<?xml version="1.0" encoding="utf-8"?>
<!-- Generator: Adobe Illustrator 16.0.0, SVG Export Plug-In . SVG Version: 6.00 Build 0)  -->
<!DOCTYPE svg PUBLIC "-//W3C//DTD SVG 1.1//EN" "http://www.w3.org/Graphics/SVG/1.1/DTD/svg11.dtd">
<svg version="1.1" id="Layer_1" xmlns="http://www.w3.org/2000/svg" xmlns:xlink="http://www.w3.org/1999/xlink" x="0px" y="0px"
	 width="170px" height="183.25px" viewBox="0 0 170 183.25" enable-background="new 0 0 170 183.25" xml:space="preserve">
<path fill="none" stroke="#225EA8" stroke-width="3" stroke-linecap="round" stroke-miterlimit="10" d="M39.54,114.28
	c-13.301,3.336-23.583,14.282-25.945,27.944"/>
<path fill="none" stroke="#225EA8" stroke-width="3" stroke-linecap="round" stroke-miterlimit="10" d="M133.056,123.24
	c11.303-5.749,20.438-14.532,20.438-27.889v1.359"/>
<rect x="146.635" y="67.844" fill="none" stroke="#31CFFF" stroke-width="4" stroke-linecap="round" stroke-miterlimit="10" width="13.293" height="20.332"/>
<rect x="256.93" y="87.273" fill="#31CFFF" width="7.487" height="115.492"/>
<polygon fill="none" stroke="#BDBDBD" stroke-width="6" stroke-linejoin="round" stroke-miterlimit="10" points="343.84,202.766 
	256.93,202.766 256.93,85 327.385,85 327.385,102.258 343.84,102.707 "/>
<line fill="none" stroke="#31CFFF" stroke-width="4" stroke-linecap="round" stroke-miterlimit="10" x1="271.75" y1="105.408" x2="281.65" y2="105.408"/>
<line fill="none" stroke="#225EA8" stroke-width="4" stroke-linecap="round" stroke-miterlimit="10" x1="289.135" y1="105.408" x2="296.335" y2="105.408"/>
<line fill="none" stroke="#31CFFF" stroke-width="4" stroke-linecap="round" stroke-miterlimit="10" x1="302.185" y1="105.408" x2="318.835" y2="105.408"/>
<line fill="none" stroke="#225EA8" stroke-width="4" stroke-linecap="round" stroke-miterlimit="10" x1="271.75" y1="112.158" x2="279.01" y2="112.158"/>
<line fill="none" stroke="#225EA8" stroke-width="4" stroke-linecap="round" stroke-miterlimit="10" x1="288.91" y1="112.158" x2="292.51" y2="112.158"/>
<line fill="none" stroke="#31CFFF" stroke-width="4" stroke-linecap="round" stroke-miterlimit="10" x1="300.385" y1="112.158" x2="303.984" y2="112.158"/>
<line fill="none" stroke="#225EA8" stroke-width="4" stroke-linecap="round" stroke-miterlimit="10" x1="311.06" y1="112.158" x2="320.31" y2="112.158"/>
<line fill="none" stroke="#225EA8" stroke-width="4" stroke-linecap="round" stroke-miterlimit="10" x1="271.75" y1="119.66" x2="276.205" y2="119.66"/>
<line fill="none" stroke="#225EA8" stroke-width="4" stroke-linecap="round" stroke-miterlimit="10" x1="282.91" y1="119.66" x2="294.01" y2="119.66"/>
<line fill="none" stroke="#31CFFF" stroke-width="4" stroke-linecap="round" stroke-miterlimit="10" x1="271.75" y1="133.758" x2="282.85" y2="133.758"/>
<line fill="none" stroke="#225EA8" stroke-width="4" stroke-linecap="round" stroke-miterlimit="10" x1="290" y1="133.758" x2="297.02" y2="133.758"/>
<line fill="none" stroke="#225EA8" stroke-width="4" stroke-linecap="round" stroke-miterlimit="10" x1="302.675" y1="119.66" x2="311.369" y2="119.66"/>
<line fill="none" stroke="#225EA8" stroke-width="4" stroke-linecap="round" stroke-miterlimit="10" x1="307.023" y1="140.312" x2="315.718" y2="140.312"/>
<line fill="none" stroke="#225EA8" stroke-width="4" stroke-linecap="round" stroke-miterlimit="10" x1="271.75" y1="127.006" x2="277.757" y2="127.006"/>
<line fill="none" stroke="#225EA8" stroke-width="4" stroke-linecap="round" stroke-miterlimit="10" x1="271.75" y1="140.312" x2="277.757" y2="140.312"/>
<line fill="none" stroke="#31CFFF" stroke-width="4" stroke-linecap="round" stroke-miterlimit="10" x1="283.96" y1="127.006" x2="291.16" y2="127.006"/>
<line fill="none" stroke="#225EA8" stroke-width="4" stroke-linecap="round" stroke-miterlimit="10" x1="296.51" y1="127.006" x2="300.21" y2="127.006"/>
<line fill="none" stroke="#225EA8" stroke-width="4" stroke-linecap="round" stroke-miterlimit="10" x1="296.435" y1="140.312" x2="300.135" y2="140.312"/>
<line fill="none" stroke="#31CFFF" stroke-width="4" stroke-linecap="round" stroke-miterlimit="10" x1="285.71" y1="140.312" x2="289.41" y2="140.312"/>
<line fill="none" stroke="#31CFFF" stroke-width="4" stroke-linecap="round" stroke-miterlimit="10" x1="303.984" y1="133.758" x2="307.685" y2="133.758"/>
<text transform="matrix(1 0 0 1 201.874 27.0176)" fill="#BDBDBD" font-family="'PTMono-Bold'" font-size="42">PY</text>
<g enable-background="new    ">
	<path fill="#BDBDBD" d="M282.797,157.053c1.06-0.201,2.225-0.357,3.498-0.471c1.271-0.113,2.538-0.172,3.799-0.172
		c1.311,0,2.627,0.109,3.95,0.322c1.321,0.215,2.514,0.643,3.571,1.285c1.059,0.643,1.922,1.537,2.59,2.684
		c0.667,1.146,1.002,2.641,1.002,4.479c0,1.613-0.29,2.994-0.87,4.141s-1.349,2.092-2.306,2.834
		c-0.958,0.744-2.048,1.285-3.27,1.625c-1.223,0.342-2.488,0.512-3.799,0.512c-0.127,0-0.328,0-0.605,0s-0.566-0.006-0.869-0.02
		s-0.598-0.031-0.889-0.057c-0.289-0.025-0.497-0.051-0.623-0.076v9.111h-5.18V157.053z M290.509,160.871
		c-0.505,0-0.982,0.02-1.437,0.057c-0.453,0.039-0.818,0.082-1.096,0.133v8.58c0.101,0.025,0.252,0.051,0.453,0.076
		s0.416,0.045,0.643,0.057s0.447,0.02,0.662,0.02c0.214,0,0.371,0,0.473,0c0.68,0,1.354-0.062,2.021-0.189s1.268-0.359,1.796-0.699
		c0.529-0.342,0.951-0.812,1.266-1.418c0.315-0.604,0.474-1.398,0.474-2.381c0-0.832-0.152-1.518-0.454-2.061
		c-0.302-0.541-0.7-0.977-1.19-1.305c-0.492-0.326-1.053-0.553-1.682-0.68C291.807,160.934,291.164,160.871,290.509,160.871z"/>
	<path fill="#BDBDBD" d="M311.488,173.496l-8.543-16.707h6.161l5.103,10.924h0.189l5.217-10.924h5.557l-8.505,16.67v9.791h-5.179
		V173.496z"/>
</g>
<path fill="none" stroke="#31CFFF" stroke-width="4" stroke-linecap="round" stroke-miterlimit="10" d="M49.605,102.776
	c0-0.757,0.025-40.509,0.075-41.254c1.159-17.308,15.565-30.987,33.166-30.987c17.238,0,31.411,13.122,33.077,29.921
	c0.108,1.092,0.164,41.2,0.164,42.32"/>
<path fill="none" stroke="#225EA8" stroke-width="3" stroke-linecap="round" stroke-miterlimit="10" d="M105.605,61.228
	c0,3.606-2.687,6.529-6,6.529h-34.5c-3.313,0-6-2.923-6-6.529l0,0c0-3.606,2.687-6.529,6-6.529h34.5
	C102.919,54.699,105.605,57.622,105.605,61.228L105.605,61.228z"/>
<line fill="none" stroke="#31CFFF" stroke-width="4" stroke-linecap="round" stroke-miterlimit="10" x1="67.605" y1="61.018" x2="97.605" y2="61.018"/>
<path fill="none" stroke="#31CFFF" stroke-width="4" stroke-linecap="round" stroke-miterlimit="10" d="M77.165,30.28L77.165,30.28
	c0-3.436,2.785-6.221,6.221-6.221l0,0c3.435,0,6.221,2.785,6.221,6.221l0,0"/>
<line fill="none" stroke="#31CFFF" stroke-width="4" stroke-linecap="round" stroke-miterlimit="10" x1="82.847" y1="10.76" x2="82.847" y2="23.417"/>
<circle fill="none" stroke="#225EA8" stroke-width="4" stroke-linecap="round" stroke-miterlimit="10" cx="82.847" cy="7.338" r="3.738"/>
<path fill="none" stroke="#225EA8" stroke-width="3" stroke-linecap="round" stroke-miterlimit="10" d="M42.23,68.83
	c1.312,0,2.375-1.063,2.375-2.375s-1.063-2.375-2.375-2.375"/>
<path fill="none" stroke="#225EA8" stroke-width="3" stroke-linecap="round" stroke-miterlimit="10" d="M122.98,68.768
	c-1.312,0-2.375-1.063-2.375-2.375s1.063-2.375,2.375-2.375"/>
<line fill="none" stroke="#31CFFF" stroke-width="4" stroke-linecap="round" stroke-miterlimit="10" x1="44.605" y1="60.83" x2="44.605" y2="72.08"/>
<line fill="none" stroke="#31CFFF" stroke-width="4" stroke-linecap="round" stroke-miterlimit="10" x1="120.605" y1="60.768" x2="120.605" y2="72.018"/>
<line fill="none" stroke="#225EA8" stroke-width="3" stroke-linecap="round" stroke-miterlimit="10" x1="73.105" y1="49.018" x2="92.105" y2="49.018"/>
<path fill="none" stroke="#31CFFF" stroke-width="4" stroke-linecap="round" stroke-miterlimit="10" d="M33.711,188.917v-55.3
	c0-19.33,15.67-35,35-35h30.908c19.33,0,35,15.67,35,35v55.3"/>
<path fill="none" stroke="#31CFFF" stroke-width="3" stroke-linecap="round" stroke-miterlimit="10" d="M39.244,187.25v-51.466
	c0-17.397,14.034-31.5,31.345-31.5H98.27c17.312,0,31.345,14.103,31.345,31.5v51.466"/>
<path fill="none" stroke="#225EA8" stroke-width="3" stroke-linecap="round" stroke-miterlimit="10" d="M79.165,166.72
	c0,6.92-5.609,12.53-12.53,12.53l0,0c-6.92,0-12.53-5.61-12.53-12.53V128.19c0-6.92,5.61-12.53,12.53-12.53l0,0
	c6.92,0,12.53,5.61,12.53,12.53V166.72z"/>
<line fill="none" stroke="#225EA8" stroke-width="3" stroke-linecap="round" stroke-miterlimit="10" x1="63.105" y1="133.896" x2="63.105" y2="152.757"/>
<line fill="none" stroke="#225EA8" stroke-width="3" stroke-linecap="round" stroke-miterlimit="10" x1="68.605" y1="128.5" x2="68.605" y2="161.5"/>
<line fill="none" stroke="#31CFFF" stroke-width="3" stroke-linecap="round" stroke-miterlimit="10" x1="90.162" y1="124.5" x2="111.097" y2="124.5"/>
<line fill="none" stroke="#31CFFF" stroke-width="3" stroke-linecap="round" stroke-miterlimit="10" x1="90.179" y1="130.758" x2="105.974" y2="130.758"/>
<line fill="none" stroke="#31CFFF" stroke-width="3" stroke-linecap="round" stroke-miterlimit="10" x1="89.745" y1="137.312" x2="99.486" y2="137.312"/>
<circle fill="none" stroke="#225EA8" stroke-width="2" stroke-linecap="round" stroke-miterlimit="10" cx="68.606" cy="125.6" r="1.901"/>
<circle fill="none" stroke="#225EA8" stroke-width="2" stroke-linecap="round" stroke-miterlimit="10" cx="102.629" cy="137.559" r="1.901"/>
<circle fill="none" stroke="#225EA8" stroke-width="2" stroke-linecap="round" stroke-miterlimit="10" cx="108.874" cy="130.5" r="1.9"/>
<circle fill="none" stroke="#225EA8" stroke-width="2" stroke-linecap="round" stroke-miterlimit="10" cx="113.065" cy="124.5" r="1.9"/>
<circle fill="none" stroke="#225EA8" stroke-width="2" stroke-linecap="round" stroke-miterlimit="10" cx="63.106" cy="131.658" r="1.901"/>
<path fill="none" stroke="#31CFFF" stroke-width="4" stroke-linecap="round" stroke-miterlimit="10" d="M136.071,128.18
	c12.829-5.191,23.879-16.768,23.879-31.457v0.359"/>
<path fill="none" stroke="#31CFFF" stroke-width="4" stroke-linecap="round" stroke-miterlimit="10" d="M131.584,114.203
	c9.616,0.02,14.239-10.859,14.25-17.9"/>
<path fill="none" stroke="#31CFFF" stroke-width="4" stroke-linecap="round" stroke-miterlimit="10" d="M44.109,109.08h-2.5
	c-19.33,0-35,15.67-35,35v-0.359"/>
<path fill="none" stroke="#31CFFF" stroke-width="4" stroke-linecap="round" stroke-miterlimit="10" d="M34.976,126.6
	c-9.616-0.02-14.239,10.859-14.25,17.9"/>
<rect x="147.635" y="49" fill="none" stroke="#31CFFF" stroke-width="4" stroke-linecap="round" stroke-miterlimit="10" width="10.365" height="19.08"/>
<rect x="148.036" y="49" fill="none" stroke="#31CFFF" stroke-width="4" stroke-linecap="round" stroke-miterlimit="10" width="19.122" height="5.5"/>
<rect x="6.609" y="152.757" fill="none" stroke="#31CFFF" stroke-width="4" stroke-linecap="round" stroke-miterlimit="10" width="13.293" height="20.332"/>
<rect x="7.609" y="172.853" fill="none" stroke="#31CFFF" stroke-width="4" stroke-linecap="round" stroke-miterlimit="10" width="10.365" height="19.08"/>
<rect x="8.011" y="186.433" fill="none" stroke="#31CFFF" stroke-width="4" stroke-linecap="round" stroke-miterlimit="10" width="19.122" height="5.5"/>
<ellipse fill="none" stroke="#31CFFF" stroke-width="4" stroke-linecap="round" stroke-miterlimit="10" cx="207.099" cy="152.757" rx="5.225" ry="4.812"/>
<line fill="none" stroke="#225EA8" stroke-width="3" stroke-linecap="round" stroke-miterlimit="10" x1="185.605" y1="213.5" x2="198.774" y2="213.5"/>
<rect x="90.606" y="150" fill="none" stroke="#225EA8" stroke-width="3" stroke-linecap="round" stroke-miterlimit="10" width="6.999" height="6.627"/>
<rect x="90.606" y="163.187" fill="none" stroke="#225EA8" stroke-width="3" stroke-linecap="round" stroke-miterlimit="10" width="6.999" height="6.627"/>
<line fill="none" stroke="#31CFFF" stroke-width="3" stroke-linecap="round" stroke-miterlimit="10" x1="104.53" y1="148.706" x2="104.53" y2="169.769"/>
<line fill="none" stroke="#31CFFF" stroke-width="3" stroke-linecap="round" stroke-miterlimit="10" x1="108.874" y1="148.706" x2="108.874" y2="169.769"/>
<path fill="none" stroke="#225EA8" stroke-width="3" stroke-linecap="round" stroke-miterlimit="10" d="M103.039,81.943
	L103.039,81.943c0,3.376-2.736,6.114-6.113,6.114h-4.621c-3.377,0-6.113-2.737-6.113-6.114l0,0"/>
<line fill="none" stroke="#225EA8" stroke-width="3" stroke-linecap="round" stroke-miterlimit="10" x1="103.039" y1="81.943" x2="86.191" y2="81.943"/>
<rect x="144.5" y="87.273" fill="none" stroke="#31CFFF" stroke-width="4" stroke-linecap="round" stroke-miterlimit="10" width="18.5" height="9.029"/>
<rect x="3.956" y="143.43" fill="none" stroke="#31CFFF" stroke-width="4" stroke-linecap="round" stroke-miterlimit="10" width="18.5" height="9.029"/>
</svg>
