<?xml version="1.0" encoding="utf-8"?>
<!-- Generator: Adobe Illustrator 16.0.0, SVG Export Plug-In . SVG Version: 6.00 Build 0)  -->
<!DOCTYPE svg PUBLIC "-//W3C//DTD SVG 1.1//EN" "http://www.w3.org/Graphics/SVG/1.1/DTD/svg11.dtd">
<svg version="1.1" id="Layer_1" xmlns="http://www.w3.org/2000/svg" xmlns:xlink="http://www.w3.org/1999/xlink" x="0px" y="0px"
	 width="170px" height="170px" viewBox="-60 0 170 170" enable-background="new -60 0 170 170" xml:space="preserve">
<polyline fill="none" stroke="#225EA8" stroke-width="4" stroke-linecap="round" stroke-linejoin="round" stroke-miterlimit="10" points="
	57.889,83.971 49.887,81.971 51.027,87.544 59.527,89.295 "/>
<polyline fill="none" stroke="#225EA8" stroke-width="4" stroke-linecap="round" stroke-linejoin="round" stroke-miterlimit="10" points="
	-19.125,114.608 -6.329,110.156 -12.797,133.305 "/>
<circle fill="#31CFFF" cx="15.671" cy="52.308" r="12"/>
<g>
	<path fill="#BDBDBD" d="M13.708,112.756c11.897,0,29.396-44.63,29.396-58.66c0-16.21-13.189-29.395-29.396-29.395
		c-16.211,0-29.397,13.185-29.397,29.395C-15.689,67.444,2.536,112.756,13.708,112.756z M-9.837,54.096
		c0-12.982,10.561-23.542,23.545-23.542c12.982,0,23.542,10.56,23.542,23.542c0,6.742-3.769,19.359-9.605,32.149
		c-6.188,13.561-11.695,20.659-13.934,20.659c-1.092-0.075-6.335-5.117-13.569-20.69C-5.827,73.362-9.837,60.456-9.837,54.096z"/>
	<path fill="#BDBDBD" d="M31.685,54.585c0-9.914-8.065-17.979-17.977-17.979c-9.914,0-17.979,8.065-17.979,17.979
		s8.064,17.977,17.979,17.977C23.619,72.562,31.685,64.499,31.685,54.585z M1.04,54.585c0-6.985,5.682-12.671,12.668-12.671
		c6.984,0,12.668,5.686,12.668,12.671c0,6.983-5.684,12.667-12.668,12.667C6.722,67.252,1.04,61.568,1.04,54.585z"/>
	<path fill="#BDBDBD" d="M82.95,139.709L60.3,76.613c-0.264-0.739-0.84-1.318-1.574-1.586l-16.238-5.955l-0.213,0.713
		c-0.725,2.422-1.552,4.934-2.46,7.478l-0.058,0.16l2.404,17.943l-12.112,3.852l-0.134,0.241c-0.969,1.731-1.938,3.333-2.896,4.794
		l-0.053,0.079c-1.251,1.903-2.826,3.574-4.043,4.991l-0.5,0.195v26.334L4.31,130.115l2.596-18.146l-0.175-0.248
		c-1.085-1.036-2.164-2.299-3.289-3.755l-1.004-1.324l-3.103,23.257l-24.139,6.776l10.752-29.937l13.165-5.266l-0.411-0.705
		c-0.648-1.108-1.283-2.244-1.898-3.388l-0.296-0.551l-8.175,3.27l4.135-11.517l-0.117-0.259c-0.781-1.727-1.536-3.47-2.243-5.188
		l-0.692-1.677l-20.908,58.249c-0.337,0.935-0.125,1.965,0.553,2.692c0.498,0.533,1.202,0.839,1.933,0.839
		c0.239,0,0.478-0.032,0.71-0.097l29.988-8.421l22.166,6.899c0.016,0.011,0.03,0.02,0.045,0.031
		c0.375,0.273,0.844,0.431,1.294,0.454c0.348,0.073,0.811,0.059,0.971,0.012c0.544-0.035,1.011-0.192,1.386-0.463
		c0.016-0.012,0.031-0.023,0.048-0.034l22.165-6.899l29.992,8.421c0.932,0.26,1.982-0.034,2.639-0.745
		C83.075,141.674,83.286,140.644,82.95,139.709z M28.384,135.853v-30.558l14.496-4.616l3.947,29.437L28.384,135.853z M44.833,75.554
		l10.916,4.003l7.258,20.226l-15.488-4.171L44.833,75.554z M52.112,129.899l-3.834-28.618l16.902,4.55l11.074,30.845L52.112,129.899
		z"/>
</g>
<polygon fill="none" stroke="#225EA8" stroke-width="4" stroke-linecap="round" stroke-linejoin="round" stroke-miterlimit="10" points="
	31.685,108.471 39.671,106.129 40.671,117.471 31.685,121.088 "/>
</svg>
