<?xml version="1.0" encoding="utf-8"?>
<!-- Generator: Adobe Illustrator 16.0.0, SVG Export Plug-In . SVG Version: 6.00 Build 0)  -->
<!DOCTYPE svg PUBLIC "-//W3C//DTD SVG 1.1//EN" "http://www.w3.org/Graphics/SVG/1.1/DTD/svg11.dtd">
<svg version="1.1" id="Layer_1" xmlns="http://www.w3.org/2000/svg" xmlns:xlink="http://www.w3.org/1999/xlink" x="0px" y="0px"
	 width="170px" height="170px" viewBox="-60 0 170 170" enable-background="new -60 0 170 170" xml:space="preserve">
<polygon fill="#31CFFF" points="222.516,67.309 134.732,67.309 134.232,-46.367 204.232,-47.309 204.232,-28.133 222.516,-27.633 
	"/>
<path fill="#225EA8" d="M182.375-31.292c0,2.731-1.477,4.945-3.297,4.945h-9.406c-1.821,0-3.297-2.214-3.297-4.945l0,0
	c0-2.731,1.476-4.945,3.297-4.945h9.406C180.898-36.237,182.375-34.023,182.375-31.292L182.375-31.292z"/>
<rect x="191.372" y="-23.804" fill="#225EA8" width="36.378" height="5.607"/>
<rect x="178.374" y="-21" fill="#225EA8" width="4" height="1.6"/>
<path fill="#31CFFF" d="M230.317,83.086h42.25v-4.01h-42.25V83.086z M230.317,95.123h42.25v-4.012h-42.25V95.123z M230.317,107.158
	h29.25v-4.011h-29.25V107.158z"/>
<path fill="#31CFFF" d="M293.764,21.582c-15.056,0-30.567,7.49-36.719,20.162c22.959,0.743,43.845,20.824,43.845,43.965
	c0,3.898-0.534,7.673-1.511,11.262c6.739-1.001,12.903-3.74,18.001-7.783l14.382,14.348v-44.04
	C331.762,38.557,314.751,21.582,293.764,21.582"/>
<path fill="#225EA8" d="M225.191,80.293h42.251v-4.011h-42.251V80.293z M225.191,92.33h42.251v-4.012h-42.251V92.33z
	 M225.191,104.365h29.25v-4.014h-29.25V104.365z"/>
<g opacity="0.851">
	<g>
		<g>
			<g>
				<g>
					<defs>
						<rect id="SVGID_1_" x="207.567" y="17.559" width="127.5" height="127.5"/>
					</defs>
					<clipPath id="SVGID_2_">
						<use xlink:href="#SVGID_1_"  overflow="visible"/>
					</clipPath>
					<path clip-path="url(#SVGID_2_)" fill="#BDBDBD" d="M290.067,17.559c-18.718,0-34.763,11.432-41.544,27.689
						c-22.957,2.048-40.956,21.323-40.956,44.811v52.5c0,1.38,1.12,2.5,2.5,2.5c0.689,0,1.314-0.28,1.768-0.732l16.428-16.426
						c7.009,4.52,15.342,7.158,24.305,7.158c18.723,0,34.768-11.436,41.551-27.702c7.418-0.667,14.316-3.125,20.256-6.956
						l16.426,16.429c0.453,0.452,1.078,0.733,1.768,0.733c1.379,0,2.5-1.119,2.5-2.5v-52.5
						C335.067,37.706,314.92,17.559,290.067,17.559 M252.567,130.059c-9.398,0-18.032-3.249-24.86-8.674l-15.14,15.139V90.059
						c0-22.092,17.909-40,40-40s40,17.908,40,40C292.567,112.151,274.658,130.059,252.567,130.059 M330.067,109.023l-15.137-15.139
						c-5.386,4.277-11.895,7.195-19.009,8.242c1.065-3.84,1.646-7.886,1.646-12.065c0-24.349-19.341-44.166-43.494-44.963
						c6.484-13.341,20.164-22.537,35.994-22.537c22.091,0,40,17.907,40,40V109.023z"/>
				</g>
			</g>
		</g>
	</g>
</g>
<rect x="286.317" y="49.587" fill="#225EA8" width="27.5" height="3.75"/>
<rect x="291.313" y="55.748" fill="#225EA8" width="22.504" height="3.75"/>
<rect x="300.067" y="61.91" fill="#225EA8" width="13.75" height="3.75"/>
<rect x="145.374" y="93.117" fill="none" width="74" height="58"/>
<text transform="matrix(1 0 0 1 145.374 122.5176)" fill="#BDBDBD" font-family="'PTMono-Bold'" font-size="42">PY</text>
<path fill="#BDBDBD" d="M6.328,30.536"/>
<path fill="#225EA8" d="M3.207,130.734c-1.048,0-1.636-0.849-1.636-1.897V33.573c0-1.049,0.586-1.898,1.636-1.898
	c1.047,0,1.636,0.849,1.636,1.898v95.264C4.843,129.885,4.254,130.734,3.207,130.734z"/>
<path fill="#225EA8" d="M42.688,136.907c-1.047,0-1.635-0.849-1.635-1.898V39.745c0-1.048,0.588-1.897,1.635-1.897
	s1.637,0.849,1.637,1.897v95.264C44.324,136.059,43.734,136.907,42.688,136.907z"/>
<path fill="#BDBDBD" d="M9.179,131.909c-1.048,0-1.636-0.848-1.636-1.897V34.749c0-1.048,0.587-1.898,1.636-1.898
	c1.047,0,1.637,0.85,1.637,1.898v95.263C10.816,131.062,10.226,131.909,9.179,131.909z"/>
<path fill="#31CFFF" d="M47.898,137.565c-1.047,0-1.637-0.848-1.637-1.897V40.404c0-1.047,0.59-1.898,1.637-1.898
	s1.635,0.85,1.635,1.898v95.264C49.533,136.715,48.945,137.565,47.898,137.565z"/>
<path fill="#31CFFF" d="M75.858,121.112c-6.212,0-12.437-2.368-18.618-7.105c-8.48-6.496-14.635-15.752-17.941-20.723l-0.392-0.589
	c-6.345-9.521-16.022-19.707-39.68-23.086c-13.256-1.895-18.993-9.818-21.47-16.13c-2.644-6.735-2.187-12.965-2.166-13.227
	c0.083-1.044,0.993-1.824,2.04-1.742c1.046,0.083,1.824,0.997,1.743,2.041c-0.072,0.93-1.418,22.185,20.389,25.299
	c25.138,3.591,35.492,14.521,42.301,24.737l0.397,0.596c10.052,15.118,25.681,33.921,45.282,22.72
	c0.912-0.52,2.067-0.203,2.59,0.707c0.518,0.908,0.202,2.069-0.709,2.589C85.062,119.81,80.463,121.112,75.858,121.112z"/>
<path fill="#BDBDBD" d="M71.142,134.046c-6.594,0-13.205,0.167-19.771-5.497c-9.004-7.771-15.54-18.843-19.052-24.788l-0.417-0.706
	c-6.736-11.39-17.013-23.573-42.134-27.615c-14.076-2.265-20.168-11.742-22.8-19.294c-2.809-8.058-2.321-15.507-2.297-15.821
	c0.086-1.25,1.054-2.182,2.167-2.082c1.11,0.099,1.937,1.192,1.851,2.441c-0.075,1.114-1.504,26.536,21.651,30.262
	c26.693,4.294,37.689,17.369,44.919,29.59l0.422,0.713c10.674,18.088,27.272,40.578,48.088,27.18
	c0.965-0.624,2.191-0.245,2.749,0.843c0.552,1.086,0.215,2.477-0.752,3.1C80.917,135.488,76.033,134.046,71.142,134.046z"/>
<path fill="#31CFFF" d="M51.432,141.694c-13.428,0-25.334-20.185-26.223-21.725c-8.529-12.762-21.995-20.295-41.163-23.034
	c-13.256-1.895-18.995-9.818-21.47-16.129c-2.645-6.733-2.188-12.963-2.166-13.225c0.082-1.045,0.998-1.826,2.04-1.742
	c1.044,0.082,1.824,0.994,1.742,2.038l0,0c-0.069,0.903-1.431,22.185,20.39,25.302c20.326,2.901,34.658,10.993,43.82,24.737
	c0.022,0.035,0.046,0.072,0.068,0.109c0.131,0.229,13.106,22.624,25.218,19.596c1.016-0.254,2.049,0.366,2.301,1.38
	c0.255,1.018-0.363,2.048-1.379,2.301C53.544,141.571,52.483,141.694,51.432,141.694z"/>
<path fill="#31CFFF" d="M-3.924,131.114c-0.909,0-1.714-0.659-1.869-1.587c-3.117-18.694-31.619-18.909-31.909-18.909
	c-1.047,0-1.898-0.85-1.898-1.898c0-1.047,0.851-1.896,1.898-1.896c0.323,0,7.981,0.029,16.186,2.65
	c11.214,3.584,17.945,10.301,19.465,19.43c0.173,1.032-0.525,2.011-1.56,2.183C-3.713,131.104-3.819,131.114-3.924,131.114z"/>
<path fill="#225EA8" d="M68.191,60.367c-2.635,0-4.781-2.146-4.781-4.782c0-2.637,2.146-4.783,4.781-4.783
	c2.636,0,4.781,2.146,4.781,4.783C72.973,58.221,70.827,60.367,68.191,60.367z M68.191,54.219c-0.753,0-1.365,0.613-1.365,1.366
	s0.612,1.366,1.365,1.366c0.754,0,1.369-0.613,1.369-1.366S68.945,54.219,68.191,54.219z"/>
<path fill="#225EA8" d="M68.619,54.257c-0.941,0-1.635-0.765-1.635-1.707v-5.316c0-0.943,0.693-1.708,1.635-1.708
	c0.945,0,1.639,0.764,1.639,1.708v5.314C70.256,53.491,69.562,54.257,68.619,54.257z"/>
<path fill="#225EA8" d="M76.669,58.161h-5.312c-0.943,0-1.711-1.237-1.711-2.181c0-0.942,0.768-2.18,1.711-2.18h5.312
	c0.944,0,1.708,1.238,1.708,2.18C78.377,56.924,77.613,58.161,76.669,58.161z"/>
<path fill="#225EA8" d="M68.619,66.021c-0.941,0-1.635-0.764-1.635-1.709v-5.691c0-0.943,0.693-1.707,1.635-1.707
	c0.945,0,1.639,0.764,1.639,1.707v5.691C70.256,65.258,69.562,66.021,68.619,66.021z"/>
<path fill="#225EA8" d="M65.285,58.161H59.59c-0.943,0-1.708-1.237-1.708-2.181c0-0.942,0.765-2.18,1.708-2.18h5.695
	c0.943,0,1.705,1.238,1.705,2.18C66.99,56.924,66.229,58.161,65.285,58.161z"/>
<path fill="#225EA8" d="M70.367,55.119c-0.438,0-0.875-0.167-1.21-0.5c-0.666-0.667-0.666-1.749,0-2.416l2.175-2.173
	c0.668-0.667,1.747-0.667,2.414-0.001c0.668,0.667,0.668,1.749,0,2.416l-2.174,2.175C71.24,54.952,70.803,55.119,70.367,55.119z"/>
<path fill="#225EA8" d="M72.541,61.64c-0.438,0-0.873-0.167-1.208-0.499l-2.175-2.174c-0.667-0.668-0.667-1.749,0-2.415
	c0.668-0.667,1.749-0.667,2.414,0l2.176,2.174c0.666,0.667,0.666,1.747,0,2.415C73.414,61.473,72.976,61.64,72.541,61.64z"/>
<path fill="#225EA8" d="M63.844,61.64c-0.436,0-0.873-0.167-1.208-0.499c-0.666-0.668-0.666-1.748,0-2.415l2.176-2.174
	c0.666-0.667,1.749-0.667,2.415,0s0.666,1.747,0,2.415l-2.174,2.174C64.719,61.473,64.281,61.64,63.844,61.64z"/>
<path fill="#225EA8" d="M66.02,55.119c-0.438,0-0.873-0.167-1.208-0.5l-2.176-2.174c-0.666-0.667-0.666-1.747,0-2.414
	c0.669-0.667,1.749-0.667,2.418-0.001l2.173,2.175c0.668,0.667,0.668,1.748,0,2.415C66.893,54.952,66.457,55.119,66.02,55.119z"/>
<path fill="#31CFFF" d="M81.766,87.099c-14.754,0-28.705-7.696-40.713-22.563C30.661,51.662,25.445,38.166,25.228,37.598
	c-0.336-0.881,0.106-1.867,0.984-2.204c0.883-0.336,1.87,0.104,2.206,0.984C28.469,36.513,33.691,50,43.765,62.451
	c13.299,16.439,28.319,23.395,44.642,20.676c0.928-0.155,1.811,0.472,1.967,1.402c0.152,0.931-0.477,1.813-1.406,1.967
	C86.553,86.897,84.148,87.099,81.766,87.099z"/>
<path fill="#BDBDBD" d="M-37.572,142.879c-0.746,0-1.483-0.246-2.087-0.711c-0.836-0.65-1.329-1.648-1.329-2.706V41.163
	c0-1.554,1.047-2.912,2.551-3.305l40.58-10.626c0.543-0.142,1.114-0.149,1.66-0.019l43.552,10.431l40.611-10.417
	c1.021-0.262,2.025-0.037,2.858,0.611c0.837,0.646,1.244,1.641,1.244,2.699v98.3c0,1.561-0.974,2.922-2.485,3.308l-41.393,10.629
	c-0.54,0.137-1.082,0.143-1.624,0.014L3.034,132.361l-39.746,10.409C-36.997,142.843-37.283,142.879-37.572,142.879z M3.006,126.813
	c0.267,0,0.535-1.363,0.797,0.092l43.613,10.429l39.499-9.759v-94.03L48.293,44.471c-0.539,0.14-1.137,0.144-1.676,0.013
	L3.46,32.663l-38.207,9.742v94.025l37.289-9.508C2.827,126.849,2.715,126.813,3.006,126.813z"/>
</svg>
