<?xml version="1.0" encoding="utf-8"?>
<!-- Generator: Adobe Illustrator 16.0.0, SVG Export Plug-In . SVG Version: 6.00 Build 0)  -->
<!DOCTYPE svg PUBLIC "-//W3C//DTD SVG 1.1//EN" "http://www.w3.org/Graphics/SVG/1.1/DTD/svg11.dtd">
<svg version="1.1" id="Layer_1" xmlns="http://www.w3.org/2000/svg" xmlns:xlink="http://www.w3.org/1999/xlink" x="0px" y="0px"
	 width="170px" height="170px" viewBox="-60 0 170 170" enable-background="new -60 0 170 170" xml:space="preserve">
<path fill="#31CFFF" d="M-4.25,134.621c0,5.181-2.933,9.379-6.55,9.379l0,0c-3.618,0-6.55-4.198-6.55-9.379V70.515
	c0-5.18,2.933-9.379,6.55-9.379l0,0c3.617,0,6.55,4.199,6.55,9.379V134.621z"/>
<path fill="#225EA8" d="M187.354,12.634c0,1.424-1.455,2.579-3.25,2.579l0,0c-1.795,0-3.25-1.155-3.25-2.579V4.427
	c0-1.424,1.455-2.579,3.25-2.579l0,0c1.795,0,3.25,1.155,3.25,2.579V12.634z"/>
<path fill="#225EA8" d="M249.877,147.428c0,1.814-1.455,3.286-3.25,3.286l0,0c-1.795,0-3.25-1.472-3.25-3.286V55.939
	c0-1.815,1.455-3.287,3.25-3.287l0,0c1.795,0,3.25,1.472,3.25,3.287V147.428z"/>
<rect x="41" y="56.796" fill="#31CFFF" width="6.756" height="6.895"/>
<rect x="7" y="56.796" fill="#31CFFF" width="6.756" height="6.895"/>
<rect x="6" y="115.752" fill="#31CFFF" width="6.756" height="6.895"/>
<rect x="42.378" y="115.752" fill="#31CFFF" width="6.756" height="6.895"/>
<rect x="7" y="77.301" fill="#31CFFF" width="6.756" height="6.895"/>
<rect x="42.378" y="77.402" fill="#31CFFF" width="6.756" height="6.895"/>
<rect x="42.378" y="96.082" fill="#31CFFF" width="6.756" height="6.895"/>
<rect x="7" y="96.082" fill="#31CFFF" width="6.756" height="6.895"/>
<line fill="none" stroke="#BDBDBD" stroke-width="6" stroke-linecap="round" stroke-miterlimit="10" x1="-32.852" y1="141.4" x2="81.351" y2="141.4"/>
<rect x="-7.35" y="43" fill="none" stroke="#BDBDBD" stroke-width="6" stroke-linecap="round" stroke-linejoin="round" stroke-miterlimit="10" width="66" height="97.6"/>
<polygon fill="none" stroke="#BDBDBD" stroke-width="6" stroke-linecap="round" stroke-linejoin="round" stroke-miterlimit="10" points="
	75.85,140.6 58.65,140.6 58.65,50.467 75.85,68.867 "/>
<line fill="none" stroke="#BDBDBD" stroke-width="6" stroke-linecap="round" stroke-linejoin="round" stroke-miterlimit="10" x1="59.295" y1="64.654" x2="75.605" y2="80.85"/>
<line fill="none" stroke="#BDBDBD" stroke-width="6" stroke-linecap="round" stroke-linejoin="round" stroke-miterlimit="10" x1="59.094" y1="77.964" x2="75.405" y2="93.358"/>
<line fill="none" stroke="#BDBDBD" stroke-width="6" stroke-linecap="round" stroke-linejoin="round" stroke-miterlimit="10" x1="59.094" y1="92.232" x2="75.405" y2="106.827"/>
<line fill="none" stroke="#BDBDBD" stroke-width="6" stroke-linecap="round" stroke-linejoin="round" stroke-miterlimit="10" x1="67.449" y1="101.17" x2="67.449" y2="138.854"/>
<rect x="-26.95" y="63.838" fill="none" stroke="#BDBDBD" stroke-width="6" stroke-linecap="round" stroke-linejoin="round" stroke-miterlimit="10" width="19.6" height="77.562"/>
<line fill="none" stroke="#BDBDBD" stroke-width="4" stroke-linecap="round" stroke-linejoin="round" stroke-miterlimit="10" x1="-20.75" y1="84.666" x2="-13.95" y2="84.666"/>
<line fill="none" stroke="#BDBDBD" stroke-width="4" stroke-linecap="round" stroke-linejoin="round" stroke-miterlimit="10" x1="-20.75" y1="93.934" x2="-13.95" y2="93.934"/>
<line fill="none" stroke="#BDBDBD" stroke-width="4" stroke-linecap="round" stroke-linejoin="round" stroke-miterlimit="10" x1="-20.75" y1="103.199" x2="-13.95" y2="103.199"/>
<line fill="none" stroke="#BDBDBD" stroke-width="4" stroke-linecap="round" stroke-linejoin="round" stroke-miterlimit="10" x1="-20.75" y1="112.467" x2="-13.95" y2="112.467"/>
<line fill="none" stroke="#BDBDBD" stroke-width="4" stroke-linecap="round" stroke-linejoin="round" stroke-miterlimit="10" x1="-20.75" y1="121.733" x2="-13.95" y2="121.733"/>
<line fill="none" stroke="#BDBDBD" stroke-width="4" stroke-linecap="round" stroke-linejoin="round" stroke-miterlimit="10" x1="-20.75" y1="131" x2="-13.95" y2="131"/>
<line fill="none" stroke="#BDBDBD" stroke-width="4" stroke-linecap="round" stroke-linejoin="round" stroke-miterlimit="10" x1="-20.75" y1="75.4" x2="-13.95" y2="75.4"/>
<rect x="4.443" y="31.786" fill="none" stroke="#BDBDBD" stroke-width="6" stroke-linecap="round" stroke-linejoin="round" stroke-miterlimit="10" width="41.313" height="11.214"/>
<line fill="none" stroke="#BDBDBD" stroke-width="6" stroke-linecap="round" stroke-linejoin="round" stroke-miterlimit="10" x1="25" y1="12.006" x2="25" y2="21.896"/>
<rect x="17" y="21.896" fill="none" stroke="#BDBDBD" stroke-width="6" stroke-linecap="round" stroke-linejoin="round" stroke-miterlimit="10" width="16.5" height="9.89"/>
<rect x="1" y="58.209" fill="none" stroke="#BDBDBD" stroke-width="4" stroke-linecap="round" stroke-linejoin="round" stroke-miterlimit="10" width="12" height="9.629"/>
<rect x="1" y="77.539" fill="none" stroke="#BDBDBD" stroke-width="4" stroke-linecap="round" stroke-linejoin="round" stroke-miterlimit="10" width="12" height="9.629"/>
<rect x="1" y="96.869" fill="none" stroke="#BDBDBD" stroke-width="4" stroke-linecap="round" stroke-linejoin="round" stroke-miterlimit="10" width="12" height="9.629"/>
<rect x="1" y="116.199" fill="none" stroke="#BDBDBD" stroke-width="4" stroke-linecap="round" stroke-linejoin="round" stroke-miterlimit="10" width="12" height="9.629"/>
<rect x="37.5" y="57.99" fill="none" stroke="#BDBDBD" stroke-width="4" stroke-linecap="round" stroke-linejoin="round" stroke-miterlimit="10" width="12" height="9.629"/>
<rect x="37.5" y="77.32" fill="none" stroke="#BDBDBD" stroke-width="4" stroke-linecap="round" stroke-linejoin="round" stroke-miterlimit="10" width="12" height="9.629"/>
<rect x="37.5" y="96.65" fill="none" stroke="#BDBDBD" stroke-width="4" stroke-linecap="round" stroke-linejoin="round" stroke-miterlimit="10" width="12" height="9.629"/>
<rect x="37.5" y="115.98" fill="none" stroke="#BDBDBD" stroke-width="4" stroke-linecap="round" stroke-linejoin="round" stroke-miterlimit="10" width="12" height="9.629"/>
<line fill="none" stroke="#225EA8" stroke-width="4" stroke-linecap="round" stroke-miterlimit="10" x1="22.25" y1="54.104" x2="22.25" y2="131.105"/>
<line fill="none" stroke="#225EA8" stroke-width="4" stroke-linecap="round" stroke-miterlimit="10" x1="28.5" y1="54.104" x2="28.5" y2="131.105"/>
</svg>
