<?xml version="1.0" encoding="utf-8"?>
<!-- Generator: Adobe Illustrator 16.0.0, SVG Export Plug-In . SVG Version: 6.00 Build 0)  -->
<!DOCTYPE svg PUBLIC "-//W3C//DTD SVG 1.1//EN" "http://www.w3.org/Graphics/SVG/1.1/DTD/svg11.dtd">
<svg version="1.1" id="Layer_1" xmlns="http://www.w3.org/2000/svg" xmlns:xlink="http://www.w3.org/1999/xlink" x="0px" y="0px"
	 width="170px" height="170px" viewBox="0 0 170 170" enable-background="new 0 0 170 170" xml:space="preserve">
<rect x="41" y="26.033" fill="#31CFFF" width="7.487" height="115.492"/>
<polygon fill="none" stroke="#BDBDBD" stroke-width="6" stroke-linejoin="round" stroke-miterlimit="10" points="127.91,141.525 
	41,141.525 41,23.76 111.455,23.76 111.455,41.018 127.91,41.467 "/>
<line fill="none" stroke="#31CFFF" stroke-width="4" stroke-linecap="round" stroke-miterlimit="10" x1="55.82" y1="44.168" x2="65.721" y2="44.168"/>
<line fill="none" stroke="#225EA8" stroke-width="4" stroke-linecap="round" stroke-miterlimit="10" x1="73.205" y1="44.168" x2="80.405" y2="44.168"/>
<line fill="none" stroke="#31CFFF" stroke-width="4" stroke-linecap="round" stroke-miterlimit="10" x1="86.255" y1="44.168" x2="102.905" y2="44.168"/>
<line fill="none" stroke="#225EA8" stroke-width="4" stroke-linecap="round" stroke-miterlimit="10" x1="55.82" y1="50.918" x2="63.08" y2="50.918"/>
<line fill="none" stroke="#225EA8" stroke-width="4" stroke-linecap="round" stroke-miterlimit="10" x1="72.98" y1="50.918" x2="76.58" y2="50.918"/>
<line fill="none" stroke="#31CFFF" stroke-width="4" stroke-linecap="round" stroke-miterlimit="10" x1="84.455" y1="50.918" x2="88.055" y2="50.918"/>
<line fill="none" stroke="#225EA8" stroke-width="4" stroke-linecap="round" stroke-miterlimit="10" x1="95.13" y1="50.918" x2="104.38" y2="50.918"/>
<line fill="none" stroke="#225EA8" stroke-width="4" stroke-linecap="round" stroke-miterlimit="10" x1="55.82" y1="58.421" x2="60.276" y2="58.421"/>
<line fill="none" stroke="#225EA8" stroke-width="4" stroke-linecap="round" stroke-miterlimit="10" x1="66.98" y1="58.421" x2="78.08" y2="58.421"/>
<line fill="none" stroke="#31CFFF" stroke-width="4" stroke-linecap="round" stroke-miterlimit="10" x1="55.82" y1="72.518" x2="66.92" y2="72.518"/>
<line fill="none" stroke="#225EA8" stroke-width="4" stroke-linecap="round" stroke-miterlimit="10" x1="74.07" y1="72.518" x2="81.09" y2="72.518"/>
<line fill="none" stroke="#225EA8" stroke-width="4" stroke-linecap="round" stroke-miterlimit="10" x1="86.745" y1="58.421" x2="95.439" y2="58.421"/>
<line fill="none" stroke="#225EA8" stroke-width="4" stroke-linecap="round" stroke-miterlimit="10" x1="91.094" y1="79.072" x2="99.788" y2="79.072"/>
<line fill="none" stroke="#225EA8" stroke-width="4" stroke-linecap="round" stroke-miterlimit="10" x1="55.82" y1="65.766" x2="61.827" y2="65.766"/>
<line fill="none" stroke="#225EA8" stroke-width="4" stroke-linecap="round" stroke-miterlimit="10" x1="55.82" y1="79.072" x2="61.827" y2="79.072"/>
<line fill="none" stroke="#31CFFF" stroke-width="4" stroke-linecap="round" stroke-miterlimit="10" x1="68.03" y1="65.766" x2="75.23" y2="65.766"/>
<line fill="none" stroke="#225EA8" stroke-width="4" stroke-linecap="round" stroke-miterlimit="10" x1="80.58" y1="65.766" x2="84.28" y2="65.766"/>
<line fill="none" stroke="#225EA8" stroke-width="4" stroke-linecap="round" stroke-miterlimit="10" x1="80.505" y1="79.072" x2="84.205" y2="79.072"/>
<line fill="none" stroke="#31CFFF" stroke-width="4" stroke-linecap="round" stroke-miterlimit="10" x1="69.78" y1="79.072" x2="73.48" y2="79.072"/>
<line fill="none" stroke="#31CFFF" stroke-width="4" stroke-linecap="round" stroke-miterlimit="10" x1="88.055" y1="72.518" x2="91.755" y2="72.518"/>
<text transform="matrix(1 0 0 1 201.874 27.0176)" fill="#BDBDBD" font-family="'PTMono-Bold'" font-size="42">PY</text>
<g enable-background="new    ">
	<path fill="#BDBDBD" d="M66.868,95.813c1.059-0.202,2.224-0.358,3.497-0.472c1.272-0.113,2.539-0.171,3.799-0.171
		c1.311,0,2.627,0.108,3.951,0.321c1.322,0.215,2.514,0.643,3.572,1.285s1.921,1.537,2.589,2.684
		c0.667,1.147,1.002,2.641,1.002,4.479c0,1.612-0.29,2.993-0.87,4.14s-1.348,2.092-2.306,2.834c-0.958,0.744-2.048,1.285-3.27,1.625
		c-1.222,0.342-2.488,0.512-3.799,0.512c-0.126,0-0.327,0-0.604,0c-0.278,0-0.567-0.006-0.87-0.02
		c-0.302-0.013-0.598-0.031-0.888-0.057c-0.29-0.024-0.498-0.05-0.624-0.075v9.11h-5.179V95.813z M74.579,99.631
		c-0.504,0-0.982,0.02-1.436,0.058s-0.819,0.081-1.097,0.132v8.58c0.101,0.025,0.252,0.052,0.454,0.076
		c0.201,0.025,0.416,0.045,0.643,0.057c0.227,0.013,0.446,0.02,0.661,0.02c0.214,0,0.372,0,0.473,0c0.68,0,1.354-0.062,2.022-0.189
		c0.667-0.126,1.267-0.359,1.795-0.699c0.529-0.341,0.951-0.812,1.266-1.418c0.315-0.604,0.473-1.398,0.473-2.381
		c0-0.832-0.151-1.518-0.454-2.061c-0.302-0.541-0.7-0.977-1.19-1.305c-0.492-0.326-1.053-0.553-1.683-0.68
		C75.876,99.694,75.235,99.631,74.579,99.631z"/>
	<path fill="#BDBDBD" d="M95.559,112.257l-8.543-16.708h6.161l5.103,10.925h0.189l5.217-10.925h5.557l-8.505,16.67v9.791h-5.179
		V112.257z"/>
</g>
</svg>
