<?xml version="1.0" encoding="utf-8"?>
<!-- Generator: Adobe Illustrator 16.0.0, SVG Export Plug-In . SVG Version: 6.00 Build 0)  -->
<!DOCTYPE svg PUBLIC "-//W3C//DTD SVG 1.1//EN" "http://www.w3.org/Graphics/SVG/1.1/DTD/svg11.dtd">
<svg version="1.1" id="Layer_1" xmlns="http://www.w3.org/2000/svg" xmlns:xlink="http://www.w3.org/1999/xlink" x="0px" y="0px"
	 width="170px" height="170px" viewBox="-60 0 170 170" enable-background="new -60 0 170 170" xml:space="preserve">
<rect x="-18.455" y="26.033" fill="#31CFFF" width="7.487" height="115.493"/>
<polygon fill="#31CFFF" points="222.516,67.309 134.732,67.309 134.232,-46.367 204.232,-47.309 204.232,-28.133 222.516,-27.633 
	"/>
<path fill="#225EA8" d="M182.375-31.292c0,2.731-1.477,4.945-3.297,4.945h-9.406c-1.821,0-3.297-2.214-3.297-4.945l0,0
	c0-2.731,1.476-4.945,3.297-4.945h9.406C180.898-36.237,182.375-34.023,182.375-31.292L182.375-31.292z"/>
<rect x="191.372" y="-23.804" fill="#225EA8" width="36.378" height="5.607"/>
<rect x="178.374" y="-21" fill="#225EA8" width="4" height="1.6"/>
<path fill="#31CFFF" d="M230.317,83.086h42.25v-4.01h-42.25V83.086z M230.317,95.123h42.25v-4.012h-42.25V95.123z M230.317,107.158
	h29.25v-4.011h-29.25V107.158z"/>
<path fill="#31CFFF" d="M293.764,21.582c-15.056,0-30.567,7.49-36.719,20.162c22.959,0.743,43.845,20.824,43.845,43.965
	c0,3.898-0.534,7.673-1.511,11.262c6.739-1.001,12.903-3.74,18.001-7.783l14.382,14.348v-44.04
	C331.762,38.557,314.751,21.582,293.764,21.582"/>
<path fill="#225EA8" d="M225.191,80.293h42.251v-4.011h-42.251V80.293z M225.191,92.33h42.251v-4.012h-42.251V92.33z
	 M225.191,104.365h29.25v-4.014h-29.25V104.365z"/>
<g opacity="0.851">
	<g>
		<g>
			<g>
				<g>
					<defs>
						<rect id="SVGID_1_" x="207.567" y="17.559" width="127.5" height="127.5"/>
					</defs>
					<clipPath id="SVGID_2_">
						<use xlink:href="#SVGID_1_"  overflow="visible"/>
					</clipPath>
					<path clip-path="url(#SVGID_2_)" fill="#BDBDBD" d="M290.067,17.559c-18.718,0-34.763,11.432-41.544,27.689
						c-22.957,2.048-40.956,21.323-40.956,44.811v52.5c0,1.38,1.12,2.5,2.5,2.5c0.689,0,1.314-0.28,1.768-0.732l16.428-16.426
						c7.009,4.52,15.342,7.158,24.305,7.158c18.723,0,34.768-11.436,41.551-27.702c7.418-0.667,14.316-3.125,20.256-6.956
						l16.426,16.429c0.453,0.452,1.078,0.733,1.768,0.733c1.379,0,2.5-1.119,2.5-2.5v-52.5
						C335.067,37.706,314.92,17.559,290.067,17.559 M252.567,130.059c-9.398,0-18.032-3.249-24.86-8.674l-15.14,15.139V90.059
						c0-22.092,17.909-40,40-40s40,17.908,40,40C292.567,112.151,274.658,130.059,252.567,130.059 M330.067,109.023l-15.137-15.139
						c-5.386,4.277-11.895,7.195-19.009,8.242c1.065-3.84,1.646-7.886,1.646-12.065c0-24.349-19.341-44.166-43.494-44.963
						c6.484-13.341,20.164-22.537,35.994-22.537c22.091,0,40,17.907,40,40V109.023z"/>
				</g>
			</g>
		</g>
	</g>
</g>
<rect x="286.317" y="49.587" fill="#225EA8" width="27.5" height="3.75"/>
<rect x="291.313" y="55.748" fill="#225EA8" width="22.504" height="3.75"/>
<rect x="300.067" y="61.91" fill="#225EA8" width="13.75" height="3.75"/>
<polygon fill="none" stroke="#BDBDBD" stroke-width="6" stroke-linejoin="round" stroke-miterlimit="10" points="68.455,141.525 
	-18.455,141.525 -18.455,23.76 52,23.76 52,41.018 68.455,41.467 "/>
<line fill="#31CFFF" stroke="#31CFFF" stroke-width="4" stroke-linecap="round" stroke-miterlimit="10" x1="-3.635" y1="44.168" x2="6.266" y2="44.168"/>
<line fill="none" stroke="#225EA8" stroke-width="4" stroke-linecap="round" stroke-miterlimit="10" x1="13.75" y1="44.168" x2="20.95" y2="44.168"/>
<line fill="#31CFFF" stroke="#31CFFF" stroke-width="4" stroke-linecap="round" stroke-miterlimit="10" x1="26.8" y1="44.168" x2="43.45" y2="44.168"/>
<line fill="none" stroke="#225EA8" stroke-width="4" stroke-linecap="round" stroke-miterlimit="10" x1="-3.635" y1="50.918" x2="3.625" y2="50.918"/>
<line fill="none" stroke="#225EA8" stroke-width="4" stroke-linecap="round" stroke-miterlimit="10" x1="13.525" y1="50.918" x2="17.125" y2="50.918"/>
<line fill="none" stroke="#225EA8" stroke-width="4" stroke-linecap="round" stroke-miterlimit="10" x1="25" y1="50.918" x2="28.6" y2="50.918"/>
<line fill="none" stroke="#225EA8" stroke-width="4" stroke-linecap="round" stroke-miterlimit="10" x1="35.675" y1="50.918" x2="44.925" y2="50.918"/>
<line fill="#31CFFF" stroke="#31CFFF" stroke-width="4" stroke-linecap="round" stroke-miterlimit="10" x1="-3.635" y1="58.421" x2="0.821" y2="58.421"/>
<line fill="none" stroke="#225EA8" stroke-width="4" stroke-linecap="round" stroke-miterlimit="10" x1="7.525" y1="58.421" x2="18.625" y2="58.421"/>
<line fill="none" stroke="#225EA8" stroke-width="4" stroke-linecap="round" stroke-miterlimit="10" x1="-3.635" y1="72.518" x2="7.465" y2="72.518"/>
<line fill="none" stroke="#225EA8" stroke-width="4" stroke-linecap="round" stroke-miterlimit="10" x1="11.8" y1="72.518" x2="22.9" y2="72.518"/>
<line fill="#31CFFF" stroke="#31CFFF" stroke-width="4" stroke-linecap="round" stroke-miterlimit="10" x1="27.29" y1="58.421" x2="35.985" y2="58.421"/>
<line fill="none" stroke="#225EA8" stroke-width="4" stroke-linecap="round" stroke-miterlimit="10" x1="31.638" y1="79.072" x2="40.333" y2="79.072"/>
<line fill="none" stroke="#225EA8" stroke-width="4" stroke-linecap="round" stroke-miterlimit="10" x1="-3.635" y1="65.766" x2="2.372" y2="65.766"/>
<line fill="none" stroke="#225EA8" stroke-width="4" stroke-linecap="round" stroke-miterlimit="10" x1="-3.635" y1="79.072" x2="2.372" y2="79.072"/>
<line fill="#31CFFF" stroke="#31CFFF" stroke-width="4" stroke-linecap="round" stroke-miterlimit="10" x1="8.575" y1="65.766" x2="15.775" y2="65.766"/>
<line fill="none" stroke="#225EA8" stroke-width="4" stroke-linecap="round" stroke-miterlimit="10" x1="21.125" y1="65.766" x2="24.825" y2="65.766"/>
<line fill="none" stroke="#225EA8" stroke-width="4" stroke-linecap="round" stroke-miterlimit="10" x1="21.05" y1="79.072" x2="24.75" y2="79.072"/>
<line fill="#31CFFF" stroke="#31CFFF" stroke-width="4" stroke-linecap="round" stroke-miterlimit="10" x1="10.325" y1="79.072" x2="14.025" y2="79.072"/>
<line fill="#31CFFF" stroke="#31CFFF" stroke-width="4" stroke-linecap="round" stroke-miterlimit="10" x1="28.6" y1="72.518" x2="32.3" y2="72.518"/>
<g>
	<path fill="#BDBDBD" d="M15.869,96.664c0.579-0.101,1.203-0.195,1.871-0.283c0.667-0.089,1.335-0.157,2.003-0.208
		c0.667-0.051,1.316-0.088,1.947-0.113c0.629-0.025,1.209-0.038,1.739-0.038c1.234,0,2.45,0.12,3.647,0.359
		c1.197,0.239,2.268,0.648,3.213,1.229c0.945,0.58,1.701,1.36,2.268,2.343c0.567,0.983,0.851,2.206,0.851,3.667
		c0,1.084-0.107,2.022-0.321,2.816c-0.214,0.794-0.51,1.493-0.888,2.098s-0.838,1.128-1.38,1.568
		c-0.542,0.441-1.128,0.839-1.758,1.191l6.388,11.566h-5.972l-5.33-10.357h-3.1v10.357h-5.178V96.664z M23.807,100.633
		c-0.529,0-1.053,0.013-1.569,0.038c-0.517,0.025-0.914,0.075-1.191,0.151v7.673h2.042c1.437,0,2.608-0.327,3.515-0.982
		s1.361-1.739,1.361-3.251c0-1.134-0.353-2.022-1.058-2.665C26.201,100.954,25.168,100.633,23.807,100.633z"/>
</g>
<rect x="145.374" y="93.117" fill="none" width="74" height="58"/>
<text transform="matrix(1 0 0 1 145.374 122.5176)" fill="#BDBDBD" font-family="'PTMono-Bold'" font-size="42">PY</text>
</svg>
