<?xml version="1.0" encoding="utf-8"?>
<!-- Generator: Adobe Illustrator 16.0.0, SVG Export Plug-In . SVG Version: 6.00 Build 0)  -->
<!DOCTYPE svg PUBLIC "-//W3C//DTD SVG 1.1//EN" "http://www.w3.org/Graphics/SVG/1.1/DTD/svg11.dtd">
<svg version="1.1" id="Layer_1" xmlns="http://www.w3.org/2000/svg" xmlns:xlink="http://www.w3.org/1999/xlink" x="0px" y="0px"
	 width="170px" height="170px" viewBox="-60 0 170 170" enable-background="new -60 0 170 170" xml:space="preserve">
<path fill="#225EA8" d="M182.375-31.292c0,2.731-1.477,4.945-3.297,4.945h-9.406c-1.821,0-3.297-2.214-3.297-4.945l0,0
	c0-2.731,1.476-4.945,3.297-4.945h9.406C180.898-36.237,182.375-34.023,182.375-31.292L182.375-31.292z"/>
<rect x="191.372" y="-23.804" fill="#225EA8" width="36.378" height="5.607"/>
<rect x="178.374" y="-21" fill="#225EA8" width="4" height="1.6"/>
<path fill="#31CFFF" d="M-16.683,85.318h42.25v-4.01h-42.25V85.318z M-16.683,97.355h42.25v-4.012h-42.25V97.355z M-16.683,109.391
	h29.25v-4.011h-29.25V109.391z"/>
<path fill="#31CFFF" d="M46.764,23.814c-15.056,0-30.567,7.49-36.719,20.162C33.004,44.72,53.89,64.801,53.89,87.941
	c0,3.898-0.534,7.673-1.511,11.262c6.739-1.001,12.903-3.74,18.001-7.783l14.382,14.348v-44.04
	C84.762,40.789,67.751,23.814,46.764,23.814"/>
<path fill="#225EA8" d="M-21.809,82.525h42.251v-4.011h-42.251V82.525z M-21.809,94.562h42.251v-4.012h-42.251V94.562z
	 M-21.809,106.598h29.25v-4.014h-29.25V106.598z"/>
<g opacity="0.851">
	<g>
		<g>
			<g>
				<g>
					<defs>
						<rect id="SVGID_1_" x="-39.433" y="19.791" width="127.5" height="127.5"/>
					</defs>
					<clipPath id="SVGID_2_">
						<use xlink:href="#SVGID_1_"  overflow="visible"/>
					</clipPath>
					<path clip-path="url(#SVGID_2_)" fill="#BDBDBD" d="M43.067,19.791c-18.718,0-34.763,11.432-41.544,27.689
						c-22.957,2.048-40.956,21.323-40.956,44.811v52.5c0,1.38,1.12,2.5,2.5,2.5c0.689,0,1.314-0.28,1.768-0.732l16.428-16.426
						c7.009,4.52,15.342,7.158,24.305,7.158c18.723,0,34.768-11.436,41.551-27.702c7.418-0.667,14.316-3.125,20.256-6.956
						L83.8,119.062c0.453,0.452,1.078,0.733,1.768,0.733c1.379,0,2.5-1.119,2.5-2.5v-52.5C88.067,39.938,67.92,19.791,43.067,19.791
						 M5.567,132.291c-9.398,0-18.032-3.249-24.86-8.674l-15.14,15.139V92.291c0-22.092,17.909-40,40-40s40,17.908,40,40
						C45.567,114.384,27.658,132.291,5.567,132.291 M83.067,111.256L67.931,96.117c-5.386,4.277-11.895,7.195-19.009,8.242
						c1.065-3.84,1.646-7.886,1.646-12.065c0-24.349-19.341-44.166-43.494-44.963c6.484-13.341,20.164-22.537,35.994-22.537
						c22.091,0,40,17.907,40,40V111.256z"/>
				</g>
			</g>
		</g>
	</g>
</g>
<rect x="39.317" y="51.819" fill="#225EA8" width="27.5" height="3.75"/>
<rect x="44.313" y="57.98" fill="#225EA8" width="22.504" height="3.75"/>
<rect x="53.067" y="64.143" fill="#225EA8" width="13.75" height="3.75"/>
</svg>
